<svg xmlns="http://www.w3.org/2000/svg" viewBox="0 0 312.29 373.72"><defs><style>.cls-1{fill:#fff;}</style></defs><g id="Layer_2" data-name="Layer 2"><g id="Layer_1-2" data-name="Layer 1"><path class="cls-1" d="M295.71,360.52c-6.63,9.21-15,13.2-25.6,13.2-17.45,0-30.25-13.56-30.25-30.52s13.15-30.65,30.37-30.65A29.65,29.65,0,0,1,294,324.3l-10.7,9.81a16.16,16.16,0,0,0-13-7c-8.73,0-15.24,7.14-15.24,16.11,0,9.21,6.4,16,15.59,16a16.41,16.41,0,0,0,13.49-7.75Z"/><rect class="cls-1" x="218.92" y="313.76" width="15.13" height="58.75"/><path class="cls-1" d="M176.62,354.59a23.19,23.19,0,0,0,15.47,5.81c4.07,0,7.21-2.06,7.21-5,0-8.84-27.34-5.69-27.34-24.59,0-11.27,10.47-18.29,21.64-18.29,7.33,0,15.36,2.91,19.08,5.94l-7.1,11.38a18.54,18.54,0,0,0-10.81-4c-4.19,0-7.69,1.69-7.69,4.72,0,7.63,27.34,4.6,27.34,24.95,0,11.27-10.58,18.17-22.45,18.17a38,38,0,0,1-22.68-7.87Z"/><path class="cls-1" d="M112.74,347.43v-32.9h15.12v30.36c0,5.33,1,8,2.8,10.06a11.1,11.1,0,0,0,8.49,3.63c5,0,12.1-2.69,12.1-14.06v-30h15.13v32.75c0,15.85-10.84,25.84-27.72,25.84-15.34,0-25.92-10.95-25.92-25.69"/><path class="cls-1" d="M81,312.15c-9.38,0-15.06,5.59-19.29,10.54-4.23-4.95-9.91-10.54-19.29-10.54-14.53,0-26.18,10-26.18,25.84v34.12H31.12V340.75c0-11.37,7-14.07,11.94-14.07a10.87,10.87,0,0,1,8.38,3.64c1.72,2.06,2.76,4.72,2.76,10.05v31.74H69.12V340.37c0-5.33,1-8,2.76-10.05a10.87,10.87,0,0,1,8.38-3.64c4.93,0,11.94,2.7,11.94,14.07v31.36h14.93V338c0-15.85-11.65-25.84-26.18-25.84"/><path class="cls-1" d="M310.24,86.37l-.12-.64c-.11-.58-.22-1.16-.34-1.74a106.43,106.43,0,0,0-16.52-39.33,98.17,98.17,0,0,0-36.1-31.44c-14.52-7.52-30.94-11.88-48.8-13a152.69,152.69,0,0,0-25.05.6C153.3,4,122.8,15.49,92.64,35,33.49,73.15-1.85,134.47.07,187.07a95.63,95.63,0,0,0,10.75,41.35,103.67,103.67,0,0,0,65,52,114.25,114.25,0,0,0,42.1,3.22l2.11-.24a138.68,138.68,0,0,0,46.35-14.6,94.33,94.33,0,0,0,11.78-7.26c11,8.74,21.18,16.07,28.3,21.08a19,19,0,0,0,10.9,2h0a18.76,18.76,0,0,0,13.73-7.92,19.25,19.25,0,0,0-4.54-26.88c-5-3.53-12.46-9-20.73-15.44l-.12-.09.11-.15.5-.66c7.13-9.68,19.05-28.83,18.69-48.37A56.42,56.42,0,0,0,211.73,150a48.39,48.39,0,0,0-42.54-17.41c-19.56,2.05-36.87,15.54-43.08,33.57a56.56,56.56,0,0,0-3.09,21c.74,15.57,7.94,31,21,44.26q1.76,1.77,3.62,3.59l.15.15-.14.08a99,99,0,0,1-33.86,10.31A75.55,75.55,0,0,1,86,243.36a65.37,65.37,0,0,1-41-32.79,57.44,57.44,0,0,1-6.25-25c-.53-13.51,2.67-28.69,9.52-44.2C61,112.5,84.18,86.17,113.59,67.18c25-16.15,49.81-25.61,73.73-28.12A114.59,114.59,0,0,1,206,38.59c24.35,1.47,44.05,11.35,55.46,27.83a68.46,68.46,0,0,1,10.69,26.52l.06.33.21,1.18.21,1.32,0,.17a96.27,96.27,0,0,1-.21,28.88c-3.3,21.76-13.49,43.37-29,61.74a19.12,19.12,0,0,0,4,25.21c4,3.3,9.1,5.09,14.28,4.09h0c5.08,0,9.67-2.82,12.91-6.77,20.85-25.4,33.58-54.79,36.82-85.17a131.3,131.3,0,0,0-1.26-37.55M161.64,183.8c.38-8.17,5.68-14.09,12.68-14.09S187,176,187,183.8a21.77,21.77,0,0,1-.37,3.75c-.54,3.48-3.5,11.52-12.44,21.74-1.5-1.77-2.93-3.51-4.28-5.2-4.2-5.25-8.65-12.12-8.27-20.29"/></g></g></svg>